<svg xmlns="http://www.w3.org/2000/svg" width="199.899" height="32.362" viewBox="0 0 199.899 32.362">
  <g id="gmc_logo_new" data-name="gmc logo new" transform="translate(-73.203)">
    <path id="Path_3" data-name="Path 3" d="M1720.16,583.075a4.984,4.984,0,1,1,4.989,4.88,4.984,4.984,0,0,1-4.989-4.88m9.217,0a4.236,4.236,0,1,0-4.228,4.131,4.188,4.188,0,0,0,4.228-4.131m-6.8.012a2.77,2.77,0,0,1,2.691-3.059,2.491,2.491,0,0,1,2.435,1.658l-.925.353a1.6,1.6,0,0,0-1.51-1.128c-1.169,0-1.7,1.059-1.7,2.174s.517,2.134,1.713,2.134a1.489,1.489,0,0,0,1.467-1.1l.883.326a2.381,2.381,0,0,1-2.35,1.671,2.753,2.753,0,0,1-2.706-3.03" transform="translate(-1457.025 -555.731)" fill="#fff"/>
    <path id="Path_5" data-name="Path 5" d="M1199.92,460.141a15.952,15.952,0,0,1-9.651,14.724,15.541,15.541,0,0,1-6.227,1.251,15.247,15.247,0,0,1-6.159-1.251,15.981,15.981,0,0,1-5.024-3.424,16.379,16.379,0,0,1-3.4-5.071,15.53,15.53,0,0,1-1.249-6.227,15.81,15.81,0,0,1,1.227-6.2,16.4,16.4,0,0,1,3.356-5.116,16.06,16.06,0,0,1,5.023-3.5,15.081,15.081,0,0,1,6.229-1.3h15.88v16.111Zm-7.406,0v-8.7h-8.472a8.283,8.283,0,0,0-5.949,2.523,8.92,8.92,0,0,0-1.806,2.777,9.049,9.049,0,0,0-.025,6.782,8.2,8.2,0,0,0,1.785,2.709,8.519,8.519,0,0,0,2.684,1.8,8.249,8.249,0,0,0,3.311.672,8.161,8.161,0,0,0,3.331-.672,8.878,8.878,0,0,0,2.686-1.8,8.008,8.008,0,0,0,1.8-2.709,8.772,8.772,0,0,0,.65-3.379" transform="translate(-996.872 -443.892)" fill="#e60a14"/>
    <path id="Path_8" data-name="Path 8" d="M996.437,465.781a15.619,15.619,0,0,1-2.385,4.213,16.4,16.4,0,0,1-3.449,3.265,15.739,15.739,0,0,1-9.074,2.847,15.437,15.437,0,0,1-6.18-1.249,15.626,15.626,0,0,1-5.024-3.426,16.188,16.188,0,0,1-3.333-17.549,16.557,16.557,0,0,1,3.4-5.116,16.06,16.06,0,0,1,5.023-3.471,15.464,15.464,0,0,1,10.95-.509,16.717,16.717,0,0,1,4.236,2.106,15.541,15.541,0,0,1,3.424,3.241,16.023,16.023,0,0,1,2.362,4.211H987.87a8.57,8.57,0,0,0-2.777-2.129,7.96,7.96,0,0,0-3.518-.787,8.282,8.282,0,0,0-5.949,2.523,8.973,8.973,0,0,0-1.829,9.559,8.2,8.2,0,0,0,1.783,2.709,8.439,8.439,0,0,0,12.384-.443Z" transform="translate(-828.075 -443.884)" fill="#fff"/>
    <path id="Path_9" data-name="Path 9" d="M1386.53,476.11h-11.572V444.03h11.572a20.071,20.071,0,0,1,6.678,1.1,16.855,16.855,0,0,1,5.551,3.2,15.177,15.177,0,0,1,3.787,5.056,16.547,16.547,0,0,1,0,13.264,15.714,15.714,0,0,1-3.739,5.081,16.389,16.389,0,0,1-5.528,3.245,19.95,19.95,0,0,1-6.749,1.131m-4.046-7.526h4.046a12.215,12.215,0,0,0,4.421-.728,8.788,8.788,0,0,0,3.082-1.929,7.774,7.774,0,0,0,1.788-2.728,8.629,8.629,0,0,0,0-6.257,7.766,7.766,0,0,0-1.788-2.729,8.764,8.764,0,0,0-3.082-1.928,12.179,12.179,0,0,0-4.421-.729h-4.046Z" transform="translate(-1169.236 -443.892)" fill="#fff"/>
    <path id="Path_10" data-name="Path 10" d="M1565.3,476.115V444.03h23.193v7.527h-15.667v4.752h15.667v7.526h-15.667v4.753h15.667v7.527Z" transform="translate(-1327.92 -443.892)" fill="#fff"/>
    <path id="Path_11" data-name="Path 11" d="M355.014,443.2A16.181,16.181,0,1,0,371.2,459.376,16.181,16.181,0,0,0,355.014,443.2m0,24.626a8.445,8.445,0,1,1,5.976-2.473,8.446,8.446,0,0,1-5.976,2.473" transform="translate(-235.429 -443.2)" fill="#fff"/>
    <path id="Path_9-2" data-name="Path 9" d="M1386.53,476.11h-11.572V444.03h11.572a20.071,20.071,0,0,1,6.678,1.1,16.855,16.855,0,0,1,5.551,3.2,15.177,15.177,0,0,1,3.787,5.056,16.547,16.547,0,0,1,0,13.264,15.714,15.714,0,0,1-3.739,5.081,16.389,16.389,0,0,1-5.528,3.245,19.95,19.95,0,0,1-6.749,1.131m-4.046-7.526h4.046a12.215,12.215,0,0,0,4.421-.728,8.788,8.788,0,0,0,3.082-1.929,7.774,7.774,0,0,0,1.788-2.728,8.629,8.629,0,0,0,0-6.257,7.766,7.766,0,0,0-1.788-2.729,8.764,8.764,0,0,0-3.082-1.928,12.179,12.179,0,0,0-4.421-.729h-4.046Z" transform="translate(-1301.755 -443.748)" fill="#fff"/>
  </g>
</svg>
