<svg xmlns="http://www.w3.org/2000/svg" width="31.716" height="32.09" viewBox="0 0 31.716 32.09">
  <path id="Path_5" data-name="Path 5" d="M1199.92,460.141a15.952,15.952,0,0,1-9.651,14.724,15.541,15.541,0,0,1-6.227,1.251,15.247,15.247,0,0,1-6.159-1.251,15.981,15.981,0,0,1-5.024-3.424,16.379,16.379,0,0,1-3.4-5.071,15.53,15.53,0,0,1-1.249-6.227,15.81,15.81,0,0,1,1.227-6.2,16.4,16.4,0,0,1,3.356-5.116,16.06,16.06,0,0,1,5.023-3.5,15.081,15.081,0,0,1,6.229-1.3h15.88v16.111Zm-7.406,0v-8.7h-8.472a8.283,8.283,0,0,0-5.949,2.523,8.92,8.92,0,0,0-1.806,2.777,9.049,9.049,0,0,0-.025,6.782,8.2,8.2,0,0,0,1.785,2.709,8.519,8.519,0,0,0,2.684,1.8,8.249,8.249,0,0,0,3.311.672,8.161,8.161,0,0,0,3.331-.672,8.878,8.878,0,0,0,2.686-1.8,8.008,8.008,0,0,0,1.8-2.709,8.772,8.772,0,0,0,.65-3.379" transform="translate(-1168.209 -444.027)" fill="#e60a14"/>
</svg>
